<!--?xml version="1.0" standalone="no"?-->
              <svg id="sw-js-blob-svg" viewBox="0 0 100 100" xmlns="http://www.w3.org/2000/svg" version="1.1">
                    <defs> 
                        <linearGradient id="sw-gradient" x1="0" x2="1" y1="1" y2="0">
                            <stop id="stop1" stop-color="rgba(245, 173, 154, 1)" offset="0%"></stop>
                            <stop id="stop2" stop-color="rgba(250.838, 210.991, 200.475, 0.57)" offset="100%"></stop>
                        </linearGradient>
                    </defs>
                <path fill="url(#sw-gradient)" d="M28,-31.8C34.6,-27.8,37.2,-17.4,37.6,-7.7C38.1,2,36.4,11,31.3,16.2C26.1,21.4,17.5,22.8,9.3,26C1.1,29.2,-6.6,34.3,-14.8,34.1C-23,34,-31.6,28.6,-37.4,20.6C-43.3,12.6,-46.2,2,-43.4,-6.6C-40.6,-15.1,-32,-21.5,-23.8,-25.3C-15.6,-29,-7.8,-30,1.4,-31.7C10.7,-33.4,21.4,-35.8,28,-31.8Z" width="100%" height="100%" transform="translate(50 50)" stroke-width="0" style="transition: all 0.3s ease 0s;" stroke="url(#sw-gradient)"></path>
              </svg>